<?xml version="1.0" encoding="utf-8"?>
<svg xmlns="http://www.w3.org/2000/svg"
	xmlns:xlink="http://www.w3.org/1999/xlink"
	width="60px" height="96px" viewBox="0 0 60 96">
<path fillRule="evenodd" d="M 48 75C 48 76.65 46.66 78 45 78 45 78 15 78 15 78 13.34 78 12 76.65 12 75 12 73.34 13.34 72 15 72 15 72 45 72 45 72 46.66 72 48 73.34 48 75ZM 45 81C 45 81 15 81 15 81 13.34 81 12 82.34 12 84 12 85.66 13.34 87 15 87 15 87 45 87 45 87 46.66 87 48 85.66 48 84 48 82.34 46.66 81 45 81ZM 24 96C 24 96 36 96 36 96 39.32 96 42 93.31 42 90 42 90 18 90 18 90 18 93.31 20.68 96 24 96ZM 60 30C 60 46.31 50.17 48.21 48.32 66 48.32 67.65 46.98 69 45.32 69 45.32 69 14.68 69 14.68 69 13.02 69 11.68 67.65 11.68 66 11.68 66 11.67 66 11.67 66 9.83 48.21 0 46.31 0 30 0 13.43 13.43-0 30-0 46.57-0 60 13.43 60 30ZM 42.15 21C 7.27 29.25 24.15 51 24.15 51 24.15 39 32.96 36.18 33.15 36.56 26.96 42.56 24.15 63 24.15 63 24.15 63 30.15 63 30.15 63 30.15 63 30.15 57 30.15 51 47.21 51.93 42.15 23.06 42.15 21Z" fill="rgb(23,207,171)"/></svg>