<?xml version="1.0" encoding="utf-8"?>
<svg xmlns="http://www.w3.org/2000/svg"
	xmlns:xlink="http://www.w3.org/1999/xlink"
	width="99px" height="76px" viewBox="0 0 99 76">
<path fillRule="evenodd" d="M 72.94 75.11C 72.94 75.11 72.94 32.16 72.94 32.16 72.94 32.16 99 32.16 99 32.16 99 32.16 99 75.11 99 75.11 99 75.11 72.94 75.11 72.94 75.11ZM 86.3 73.25C 87.13 73.25 87.81 72.59 87.81 71.78 87.81 70.96 87.13 70.3 86.3 70.3 85.47 70.3 84.8 70.97 84.8 71.78 84.8 72.59 85.48 73.25 86.3 73.25ZM 86.55 33.94C 86.2 33.94 85.92 34.21 85.92 34.56 85.92 34.89 86.2 35.18 86.55 35.18 86.9 35.18 87.18 34.89 87.18 34.56 87.18 34.22 86.9 33.94 86.55 33.94ZM 90.3 36C 90.3 36 82.8 36 82.8 36 82.8 36 82.8 36.59 82.8 36.59 82.8 36.59 90.3 36.59 90.3 36.59 90.3 36.59 90.3 36 90.3 36ZM 94.82 38.7C 94.82 38.7 77.12 38.7 77.12 38.7 77.12 38.7 77.12 68.23 77.12 68.23 80.48 68.26 88.05 68.23 94.82 68.19 94.82 68.19 94.82 38.7 94.82 38.7ZM 81.36 5.36C 81.36 5.36 19.19 5.36 19.19 5.36 19.19 5.36 19.19 16.54 19.19 16.54 19.19 16.54 13.71 16.54 13.71 16.54 13.71 16.54 13.71-0 13.71-0 13.71-0 86.84-0 86.84-0 86.84-0 86.84 30.08 86.84 30.08 86.84 30.08 81.36 30.08 81.36 30.08 81.36 30.08 81.36 5.36 81.36 5.36ZM 38.8 76C 38.8 76-0 76-0 76-0 76-0 18.97-0 18.97-0 18.97 38.8 18.97 38.8 18.97 38.8 18.97 38.8 76 38.8 76ZM 20.22 73.14C 21.25 73.14 22.09 72.31 22.09 71.3 22.09 70.29 21.25 69.47 20.22 69.47 19.18 69.47 18.35 70.29 18.35 71.3 18.35 72.31 19.18 73.14 20.22 73.14ZM 5.61 24.47C 5.61 24.47 5.61 66.54 5.61 66.54 5.61 66.54 33.19 66.54 33.19 66.54 33.19 66.54 33.19 24.47 33.19 24.47 33.19 24.47 5.61 24.47 5.61 24.47ZM 70.11 47.24C 70.11 47.24 41.3 47.24 41.3 47.24 41.3 47.24 41.3 41.87 41.3 41.87 41.3 41.87 70.11 41.87 70.11 41.87 70.11 41.87 70.11 47.24 70.11 47.24ZM 51.31 49.43C 51.31 49.43 70.11 49.43 70.11 49.43 70.11 49.43 70.11 57.05 70.11 57.05 70.11 57.05 41.3 57.05 41.3 57.05 41.3 57.05 41.3 54.11 41.3 54.11 41.3 54.11 60.61 54.11 60.61 54.11 60.61 54.11 60.61 52.69 60.61 52.69 60.61 52.69 41.3 52.69 41.3 52.69 41.3 52.69 41.3 49.43 41.3 49.43 41.3 49.43 49.23 49.43 49.23 49.43 49.23 49.43 51.31 49.43 51.31 49.43Z" fill="rgb(255,255,255)"/></svg>