<?xml version="1.0" encoding="utf-8"?>
<svg xmlns="http://www.w3.org/2000/svg"
	xmlns:xlink="http://www.w3.org/1999/xlink"
	width="58px" height="97px" viewBox="0 0 58 97">
<path fillRule="evenodd" d="M 57.98 72.93C 57.98 75.49 57.29 78.01 56 80.2 56 80.2 52.36 86.41 52.36 86.41 52.36 86.41 16.4 86.41 16.4 86.41 6.39 76.16 1.31 65.23 0.54 60.54-0 57.32 2.22 55.17 4.68 55.17 6.09 55.17 7.58 55.86 8.69 57.48 9.05 58 9.43 58.56 9.86 59.18 13.06 63.87 16.35 63.91 17.81 63.96 17.82 63.96 17.83 63.96 17.84 63.96 17.89 63.96 17.94 63.96 17.98 63.94 17.99 63.94 17.99 63.94 18 63.94 18.52 63.87 18.89 63.43 18.89 62.91 18.89 62.91 18.92 19.12 18.92 19.12 18.9 16.66 21.05 15.34 23.13 15.34 24.96 15.34 26.74 16.36 26.96 18.53 26.96 18.58 29.73 45.6 29.74 45.69 29.74 45.7 29.74 45.7 29.74 45.7 29.74 45.7 29.75 45.7 29.75 45.7 30.51 45.02 31.78 44.62 33.22 44.62 33.76 44.62 34.32 44.67 34.88 44.78 36.72 45.15 48.72 49.06 54.67 51.02 56.66 51.67 58 53.54 58 55.66 58 55.66 57.98 72.93 57.98 72.93ZM 31.78 33.9C 31.01 26.5 30.17 18.24 30.17 18.2 29.98 16.29 29.05 14.62 27.57 13.52 26.35 12.61 24.78 12.1 23.14 12.1 21.04 12.1 19.04 12.9 17.65 14.31 16.4 15.59 15.71 17.3 15.71 19.13 15.71 19.13 15.7 34.98 15.7 34.98 9.22 32.21 4.67 25.73 4.68 18.2 4.68 8.14 12.74-0 22.69-0 32.63-0 40.69 8.14 40.69 18.2 40.69 24.89 37.1 30.74 31.78 33.9ZM 52.38 94.83C 52.38 96.02 51.42 97 50.24 97 50.24 97 18.56 97 18.56 97 17.38 97 16.42 96.02 16.42 94.83 16.42 94.83 16.42 89.87 16.42 89.87 16.42 89.87 52.38 89.87 52.38 89.87 52.38 89.87 52.38 94.83 52.38 94.83Z" fill="rgb(23,207,171)"/></svg>