<?xml version="1.0" encoding="utf-8"?>
<svg xmlns="http://www.w3.org/2000/svg"
	xmlns:xlink="http://www.w3.org/1999/xlink"
	width="93px" height="75px" viewBox="0 0 93 75">
<path fillRule="evenodd" d="M 74.29-0C 74.29-0 62.05 18.42 62.05 18.42 62.05 18.42 49.4-0 49.4-0 49.4-0 74.29-0 74.29-0ZM 60.11 22.63C 60.11 22.63 32.94 22.63 32.94 22.63 32.94 22.63 46.52 74.03 46.52 74.03 46.52 74.03 60.11 22.63 60.11 22.63ZM 33.85 19.61C 33.85 19.61 59.2 19.61 59.2 19.61 59.2 19.61 46.52 1.16 46.52 1.16 46.52 1.16 33.85 19.61 33.85 19.61ZM 31 18.42C 31 18.42 43.65-0 43.65-0 43.65-0 18.75-0 18.75-0 18.75-0 31 18.42 31 18.42ZM 43.65 75C 43.65 75 29.81 22.63 29.81 22.63 29.81 22.63-0 22.63-0 22.63-0 22.63 43.65 75 43.65 75ZM 0.04 19.61C 0.04 19.61 28.16 19.61 28.16 19.61 28.16 19.61 15.91 1.19 15.91 1.19 15.91 1.19 0.04 19.61 0.04 19.61ZM 77.12 1.22C 77.12 1.22 64.89 19.61 64.89 19.61 64.89 19.61 92.96 19.61 92.96 19.61 92.96 19.61 77.12 1.22 77.12 1.22ZM 63.24 22.63C 63.24 22.63 49.4 74.99 49.4 74.99 49.4 74.99 93 22.63 93 22.63 93 22.63 63.24 22.63 63.24 22.63Z" fill="rgb(255,255,255)"/></svg>