<?xml version="1.0" encoding="utf-8"?>
<!-- Generator: Adobe Illustrator 22.1.0, SVG Export Plug-In . SVG Version: 6.00 Build 0)  -->
<svg version="1.1" id="Слой_1" xmlns="http://www.w3.org/2000/svg" xmlns:xlink="http://www.w3.org/1999/xlink" x="0px" y="0px"
	 viewBox="0 0 88 5" style="enable-background:new 0 0 88 5;" xml:space="preserve">
<style type="text/css">
	.st0{fill:#18CFAB;}
	.st1{font-family:'MyriadPro-Regular';}
	.st2{font-size:12px;}
	.st3{letter-spacing:33;}
</style>
<rect class="st0" width="76" height="1.1"/>
<rect x="12" y="3.9" class="st0" width="76" height="1.1"/>
<text transform="matrix(1 0 0 1 -417 -79.5)"><tspan x="0" y="0" class="st1 st2">&lt;!-- ПутукфещкЖ Фвщиу Шддгыекфещк 22/1/0? ЫМП Учзщке Здгп-Шт  --&gt;</tspan><tspan x="0" y="14.4" class="st1 st2">Бымп мукышщт=Э1ю1Э</tspan><tspan x="0" y="28.8" class="st1 st2 st3">	</tspan><tspan x="36" y="28.8" class="st1 st2"> чьдты=ЭреезЖ..цццюц3ющкп.2000.ымпЭ чьдтыЖчдштл=ЭреезЖ..цццюц3ющкп.1999.чдштлЭ чьдтыЖф=ЭреезЖ..тыюфвщиуюсщь.ФвщиуЫМПМшуцукУчеутышщты.3ю0.Э</tspan><tspan x="0" y="43.2" class="st1 st2 st3">	</tspan><tspan x="36" y="43.2" class="st1 st2"> ч=Э0зчЭ н=Э0зчЭ цшвер=Э76зчЭ рушпре=Э2ю5зчЭ мшуцИщч=Э0 0 76 2/5@ ыенду=Эутфиду-ифслпкщгтвЖтуц 0 0 76 2/5$@</tspan><tspan x="0" y="57.6" class="st1 st2 st3">	</tspan><tspan x="36" y="57.6" class="st1 st2"> чьдЖызфсу=ЭзкуыукмуЭЮ</tspan><tspan x="0" y="72" class="st1 st2">Быенду ензу=Эеуче.сыыЭЮ</tspan><tspan x="0" y="86.4" class="st1 st2 st3">	</tspan><tspan x="36" y="86.4" class="st1 st2">юые0ХашддЖ№18САФИжЪ</tspan><tspan x="0" y="100.8" class="st1 st2">Б.ыендуЮ</tspan><tspan x="0" y="115.2" class="st1 st2">БвуаыЮ</tspan><tspan x="0" y="129.6" class="st1 st2">Б.вуаыЮ</tspan><tspan x="0" y="144" class="st1 st2">Бкусе сдфыы=Эые0Э цшвер=Э76Э рушпре=Э2ю5Э.Ю</tspan><tspan x="0" y="158.4" class="st1 st2">Б.ымпЮ</tspan></text>
<text transform="matrix(1 0 0 1 -417 -79.5)"><tspan x="0" y="0" class="st1 st2">&lt;!-- ПутукфещкЖ Фвщиу Шддгыекфещк 22/1/0? ЫМП Учзщке Здгп-Шт  --&gt;</tspan><tspan x="0" y="14.4" class="st1 st2">Бымп мукышщт=Э1ю1Э</tspan><tspan x="0" y="28.8" class="st1 st2 st3">	</tspan><tspan x="36" y="28.8" class="st1 st2"> чьдты=ЭреезЖ..цццюц3ющкп.2000.ымпЭ чьдтыЖчдштл=ЭреезЖ..цццюц3ющкп.1999.чдштлЭ чьдтыЖф=ЭреезЖ..тыюфвщиуюсщь.ФвщиуЫМПМшуцукУчеутышщты.3ю0.Э</tspan><tspan x="0" y="43.2" class="st1 st2 st3">	</tspan><tspan x="36" y="43.2" class="st1 st2"> ч=Э0зчЭ н=Э0зчЭ цшвер=Э76зчЭ рушпре=Э1ю1зчЭ мшуцИщч=Э0 0 76 1/1@ ыенду=Эутфиду-ифслпкщгтвЖтуц 0 0 76 1/1$@</tspan><tspan x="0" y="57.6" class="st1 st2 st3">	</tspan><tspan x="36" y="57.6" class="st1 st2"> чьдЖызфсу=ЭзкуыукмуЭЮ</tspan><tspan x="0" y="72" class="st1 st2">Быенду ензу=Эеуче.сыыЭЮ</tspan><tspan x="0" y="86.4" class="st1 st2 st3">	</tspan><tspan x="36" y="86.4" class="st1 st2">юые0ХашддЖ№18САФИжЪ</tspan><tspan x="0" y="100.8" class="st1 st2">Б.ыендуЮ</tspan><tspan x="0" y="115.2" class="st1 st2">БвуаыЮ</tspan><tspan x="0" y="129.6" class="st1 st2">Б.вуаыЮ</tspan><tspan x="0" y="144" class="st1 st2">Бкусе сдфыы=Эые0Э цшвер=Э76Э рушпре=Э1ю1Э.Ю</tspan><tspan x="0" y="158.4" class="st1 st2">Б.ымпЮ</tspan></text>
</svg>
